<svg xmlns="http://www.w3.org/2000/svg" xmlns:xlink="http://www.w3.org/1999/xlink" version="1.1" x="0px" y="0px" viewBox="0 0 52 65" enable-background="new 0 0 52 52" xml:space="preserve">
    <g>
        <path fill="#000000" d="M46,18c1.1025391,0,2-0.8974609,2-2v-6c0-1.1025391-0.8974609-2-2-2h-3V5c0-1.6542969-1.3457031-3-3-3H15H8   H7C5.3457031,2,4,3.3457031,4,5v42c0,1.6542969,1.3457031,3,3,3h1h7h25c1.6542969,0,3-1.3457031,3-3v-3h3   c1.1025391,0,2-0.8974609,2-2v-6c0-1.1025391-0.8974609-2-2-2h-3v-3h3c1.1025391,0,2-0.8974609,2-2v-6c0-1.1025391-0.8974609-2-2-2   h-3v-3H46z M46,10l0.0009766,6H43v-6H46z M7,48c-0.5517578,0-1-0.4482422-1-1V5c0-0.5517578,0.4482422-1,1-1h1v44H7z M10,48V4h3v44   H10z M46,36l0.0009766,6H43v-6H46z M46,23l0.0009766,6H43v-6H46z M41,21v10v3v10v3c0,0.5517578-0.4482422,1-1,1H15V4h25   c0.5517578,0,1,0.4482422,1,1v3v10V21z"/>
        <path fill="#000000" d="M32.1669922,25.0898438c-0.3603516-0.1650391-0.7822266-0.1005859-1.078125,0.1630859   c-1.7402344,1.5449219-4.4375,1.5449219-6.1777344,0c-0.296875-0.2636719-0.71875-0.328125-1.078125-0.1630859   c-2.9013672,1.3203125-5.2910156,4.8115234-5.8125,8.4892578c-0.0849609,0.6025391,0.0966797,1.2148438,0.5,1.6796875   C18.9296875,35.7294922,19.5214844,36,20.1435547,36h15.7128906c0.6220703,0,1.2138672-0.2705078,1.6230469-0.7412109   c0.4033203-0.4648438,0.5849609-1.0771484,0.5-1.6806641C37.4580078,29.9013672,35.0683594,26.4101563,32.1669922,25.0898438z    M35.8564453,34H20.1435547c-0.0576172,0-0.0957031-0.0332031-0.1425781-0.140625   c0.390625-2.7558594,2.0859375-5.4541016,4.1308594-6.671875c2.2714844,1.6386719,5.4648438,1.6386719,7.7363281,0   c2.0449219,1.21875,3.7382813,3.9228516,4.1005859,6.7597656C35.9521484,33.9667969,35.9140625,34,35.8564453,34z"/>
        <path fill="#000000" d="M24,20c0,2.2060547,1.7939453,4,4,4s4-1.7939453,4-4s-1.7939453-4-4-4S24,17.7939453,24,20z M30,20   c0,1.1025391-0.8974609,2-2,2s-2-0.8974609-2-2s0.8974609-2,2-2S30,18.8974609,30,20z"/>
        <path fill="#000000" d="M21,9h14c0.5527344,0,1-0.4472656,1-1s-0.4472656-1-1-1H21c-0.5527344,0-1,0.4472656-1,1S20.4472656,9,21,9   z"/>
        <path fill="#000000" d="M21,14h14c0.5527344,0,1-0.4472656,1-1s-0.4472656-1-1-1H21c-0.5527344,0-1,0.4472656-1,1   S20.4472656,14,21,14z"/>
        <path fill="#000000" d="M35,41H21c-0.5527344,0-1,0.4472656-1,1s0.4472656,1,1,1h14c0.5527344,0,1-0.4472656,1-1   S35.5527344,41,35,41z"/>
    </g>
</svg>