<svg xmlns="http://www.w3.org/2000/svg" xmlns:xlink="http://www.w3.org/1999/xlink" version="1.1" x="0px" y="0px" viewBox="0 0 100 125" style="enable-background:new 0 0 100 100;" xml:space="preserve"><style type="text/css">
	.st0{fill:none;stroke:#000000;stroke-width:2;stroke-linecap:round;stroke-linejoin:round;stroke-miterlimit:10;}
	.st1{fill:none;stroke:#000000;stroke-width:1.8;stroke-linecap:round;stroke-linejoin:round;stroke-miterlimit:10;}
	.st2{fill:none;stroke:#000000;stroke-width:2;stroke-linecap:round;stroke-linejoin:round;}
	.st3{fill:none;stroke:#000000;stroke-width:2;stroke-linecap:round;stroke-linejoin:round;stroke-dasharray:2.9177,3.8902;}
	.st4{fill:none;stroke:#000000;stroke-width:2;stroke-miterlimit:10;}
</style><path d="M89.649,68.209c-3.696-1.942-7.35-4.808-10.871-8.505c0.829-0.619,1.374-1.599,1.374-2.712c0-1.871-1.522-3.394-3.394-3.394  s-3.394,1.522-3.394,3.394c0,1.242,0.677,2.318,1.674,2.91c-8.048,7.939-16.55,11.84-25.365,11.588  c-13.009-0.383-22.674-9.872-24.437-11.722c0.875-0.615,1.451-1.627,1.451-2.776c0-1.871-1.522-3.394-3.394-3.394  s-3.394,1.522-3.394,3.394c0,1.179,0.605,2.217,1.52,2.826c-3.486,3.641-7.103,6.469-10.76,8.391  c-0.489,0.257-0.677,0.861-0.42,1.35c0.179,0.341,0.526,0.535,0.886,0.535c0.157,0,0.316-0.037,0.464-0.115  c3.688-1.937,7.321-4.735,10.817-8.307V89c0,0.553,0.448,1,1,1s1-0.447,1-1V61.79c2.955,2.959,12.4,11.315,25.188,11.698  c0.302,0.01,0.602,0.014,0.902,0.014c8.828,0,17.354-3.911,25.374-11.62V89c0,0.553,0.448,1,1,1s1-0.447,1-1V61.641  c3.506,3.586,7.149,6.394,10.847,8.337c0.148,0.078,0.308,0.115,0.464,0.115c0.36,0,0.708-0.194,0.886-0.535  C90.326,69.07,90.138,68.466,89.649,68.209z M23.293,55.599c0.769,0,1.394,0.625,1.394,1.394s-0.625,1.395-1.394,1.395  s-1.394-0.626-1.394-1.395S22.525,55.599,23.293,55.599z M76.758,55.599c0.769,0,1.394,0.625,1.394,1.394s-0.625,1.395-1.394,1.395  s-1.394-0.626-1.394-1.395S75.989,55.599,76.758,55.599z"/><path d="M22.672,48h54.655c0.552,0,1-0.447,1-1V11c0-0.553-0.448-1-1-1H22.672c-0.552,0-1,0.447-1,1v36  C21.672,47.553,22.12,48,22.672,48z M23.672,12h52.655v34H23.672V12z"/><path d="M72.578,14.477H27.422c-0.552,0-1,0.447-1,1v27.047c0,0.553,0.448,1,1,1h45.156c0.552,0,1-0.447,1-1V15.477  C73.578,14.924,73.13,14.477,72.578,14.477z M71.578,41.523H28.422V16.477h43.156V41.523z"/>
</svg>