<svg xmlns="http://www.w3.org/2000/svg" viewBox="0 0 512 640" x="0px" y="0px">
    <g>
        <path d="M440,64a8,8,0,0,0,8-8V24a8,8,0,0,0-8-8H72a8,8,0,0,0-8,8V56a8,8,0,0,0,8,8H96V488a8,8,0,0,0,8,8h32a8,8,0,0,0,8-8V203.314L283.314,64H320V96.805A40.067,40.067,0,0,0,288,136v8a39.965,39.965,0,0,0,16,31.979V184H280a8,8,0,0,0-5.657,2.343l-59.029,59.029a24.971,24.971,0,0,0,35.313,35.315L272,259.313V416.4a20,20,0,0,0,4,39.6h36a8,8,0,0,0,8-8V320h16V448a8,8,0,0,0,8,8h36a20,20,0,0,0,4-39.6V259.313l21.373,21.374a24.971,24.971,0,0,0,35.313-35.315l-59.029-59.029A8,8,0,0,0,376,184H352v-8.021A39.965,39.965,0,0,0,368,144v-8a40.067,40.067,0,0,0-32-39.195V64ZM239.314,269.372a8.97,8.97,0,1,1-12.687-12.685L248,235.314,260.686,248ZM304,440H276a4,4,0,0,1,0-8h28Zm0-24H288V320h16Zm64-96v96H352V320Zm12,120H352v-8h28a4,4,0,0,1,0,8Zm52-176.971a8.97,8.97,0,0,1-15.314,6.343L395.314,248,408,235.314l21.373,21.373A8.91,8.91,0,0,1,432,263.029ZM372.686,200l24,24L384,236.686l-2.343-2.343A8,8,0,0,0,368,240v64H288V240a8,8,0,0,0-13.657-5.657L272,236.686,259.314,224l24-24H304a24,24,0,0,0,48,0ZM336,184v16a8,8,0,0,1-16,0V184Zm16-48v8a24,24,0,0,1-48,0v-8a24,24,0,0,1,48,0ZM80,32H432V48H80Zm64,32h68.686L144,132.686ZM128,480H112V64h16Zm16-299.313V155.313L235.313,64h25.374Z"/>
    </g>
</svg>