<svg xmlns="http://www.w3.org/2000/svg" xmlns:xlink="http://www.w3.org/1999/xlink" version="1.1" x="0px" y="0px" viewBox="0 0 792 765" enable-background="new 0 0 792 612" xml:space="preserve">
    <g>
        <path d="M792,603V9H0v594H792z M312.84,587.16v-47.52h126.72v47.52H312.84z M510.84,587.16v-47.52h126.72v47.52H510.84z    M776.16,587.16H653.4V523.8H495v63.36h-39.6V523.8H297v63.36H15.84V24.84h760.32V587.16z"/>
        <path d="M653.4,127.8H495v158.4h158.4V127.8z M637.56,270.36H510.84V143.64h126.72V270.36z"/>
        <path d="M455.4,127.8H297v158.4h158.4V127.8z M439.56,270.36H312.84V143.64h126.72V270.36z"/>
        <path d="M653.4,325.8H495v158.4h158.4V325.8z M637.56,468.36H510.84V341.64h126.72V468.36z"/>
        <path d="M455.4,325.8H297v158.4h158.4V325.8z M439.56,468.36H312.84V341.64h126.72V468.36z"/>
        <rect x="138.6" y="127.8" width="118.8" height="15.84"/><rect x="138.6" y="167.4" width="118.8" height="15.84"/>
        <rect x="138.6" y="207" width="118.8" height="15.84"/><rect x="138.6" y="246.6" width="118.8" height="15.84"/>
    </g>
</svg>