<svg xmlns="http://www.w3.org/2000/svg" xmlns:xlink="http://www.w3.org/1999/xlink" version="1.1" x="0px" y="0px" viewBox="0 0 100 125" enable-background="new 0 0 100 100" xml:space="preserve">
    <path d="M65,10c-6.618,0-12,5.383-12,12s5.382,12,12,12s12-5.383,12-12S71.618,10,65,10z M65,28  c-3.308,0-6-2.691-6-6s2.692-6,6-6s6,2.691,6,6S68.308,28,65,28z"/>
    <path d="M89,37H59c-3.308,0-6,2.691-6,6v12.407C48.904,48.018,41.03,43,32,43C18.767,43,8,53.767,8,67  s10.767,24,24,24c12.522,0,22.821-9.644,23.893-21.893C56.803,69.663,57.859,70,59,70h9h15v18c0,1.657,1.342,3,3,3s3-1.343,3-3V70  c0-3.309-2.692-6-6-6H71V43h18c1.658,0,3-1.343,3-3S90.658,37,89,37z M28.848,49.294c1.163,10.375-4.487,20.004-13.57,24.329  C11.044,62.97,17.741,51.267,28.848,49.294z M18.443,78.803c10.572-5.309,17.575-16.706,16.405-29.556  c2.112,0.338,4.105,1.031,5.906,2.038c1.677,13.644-5.798,26.026-17.834,31.231C21.232,81.525,19.721,80.27,18.443,78.803z   M30.996,84.949c9.38-6.223,15.323-16.49,15.931-27.998C48.866,59.822,50,63.281,50,67C50,77.133,41.524,85.537,30.996,84.949z   M65,64h-6V43h6V64z"/>
</svg>